<svg id="visual" viewBox="0 0 900 600" width="900" height="600" xmlns="http://www.w3.org/2000/svg" xmlns:xlink="http://www.w3.org/1999/xlink" version="1.1"><path d="M0 55L15 59C30 63 60 71 90 78C120 85 150 91 180 84C210 77 240 57 270 58C300 59 330 81 360 83C390 85 420 67 450 66C480 65 510 81 540 88C570 95 600 93 630 90C660 87 690 83 720 84C750 85 780 91 810 84C840 77 870 57 885 47L900 37L900 0L885 0C870 0 840 0 810 0C780 0 750 0 720 0C690 0 660 0 630 0C600 0 570 0 540 0C510 0 480 0 450 0C420 0 390 0 360 0C330 0 300 0 270 0C240 0 210 0 180 0C150 0 120 0 90 0C60 0 30 0 15 0L0 0Z" fill="#9d3da6"></path><path d="M0 121L15 137C30 153 60 185 90 215C120 245 150 273 180 273C210 273 240 245 270 232C300 219 330 221 360 214C390 207 420 191 450 195C480 199 510 223 540 223C570 223 600 199 630 200C660 201 690 227 720 240C750 253 780 253 810 261C840 269 870 285 885 293L900 301L900 35L885 45C870 55 840 75 810 82C780 89 750 83 720 82C690 81 660 85 630 88C600 91 570 93 540 86C510 79 480 63 450 64C420 65 390 83 360 81C330 79 300 57 270 56C240 55 210 75 180 82C150 89 120 83 90 76C60 69 30 61 15 57L0 53Z" fill="#b74ac2"></path><path d="M0 265L15 279C30 293 60 321 90 337C120 353 150 357 180 345C210 333 240 305 270 301C300 297 330 317 360 317C390 317 420 297 450 300C480 303 510 329 540 337C570 345 600 335 630 344C660 353 690 381 720 387C750 393 780 377 810 385C840 393 870 425 885 441L900 457L900 299L885 291C870 283 840 267 810 259C780 251 750 251 720 238C690 225 660 199 630 198C600 197 570 221 540 221C510 221 480 197 450 193C420 189 390 205 360 212C330 219 300 217 270 230C240 243 210 271 180 271C150 271 120 243 90 213C60 183 30 151 15 135L0 119Z" fill="#d258de"></path><path d="M0 379L15 396C30 413 60 447 90 462C120 477 150 473 180 463C210 453 240 437 270 429C300 421 330 421 360 418C390 415 420 409 450 413C480 417 510 431 540 424C570 417 600 389 630 398C660 407 690 453 720 465C750 477 780 455 810 454C840 453 870 473 885 483L900 493L900 455L885 439C870 423 840 391 810 383C780 375 750 391 720 385C690 379 660 351 630 342C600 333 570 343 540 335C510 327 480 301 450 298C420 295 390 315 360 315C330 315 300 295 270 299C240 303 210 331 180 343C150 355 120 351 90 335C60 319 30 291 15 277L0 263Z" fill="#da75e4"></path><path d="M0 601L15 601C30 601 60 601 90 601C120 601 150 601 180 601C210 601 240 601 270 601C300 601 330 601 360 601C390 601 420 601 450 601C480 601 510 601 540 601C570 601 600 601 630 601C660 601 690 601 720 601C750 601 780 601 810 601C840 601 870 601 885 601L900 601L900 491L885 481C870 471 840 451 810 452C780 453 750 475 720 463C690 451 660 405 630 396C600 387 570 415 540 422C510 429 480 415 450 411C420 407 390 413 360 416C330 419 300 419 270 427C240 435 210 451 180 461C150 471 120 475 90 460C60 445 30 411 15 394L0 377Z" fill="#e290ea"></path></svg>